<svg width="400" height="400" viewBox="0 0 400 400" fill="none" xmlns="http://www.w3.org/2000/svg">
<rect width="400" height="400" fill="url(#paint0_radial_1_83)"/>
<path d="M117.178 213.036C115.354 213.036 113.638 212.688 112.03 211.992C110.446 211.296 109.054 210.36 107.854 209.184C106.654 207.984 105.706 206.58 105.01 204.972C104.314 203.364 103.966 201.648 103.966 199.824C103.966 198 104.314 196.296 105.01 194.712C105.706 193.104 106.654 191.7 107.854 190.5C109.054 189.3 110.446 188.352 112.03 187.656C113.638 186.96 115.354 186.612 117.178 186.612H126.034C127.81 186.612 129.49 186.948 131.074 187.62C132.682 188.268 134.122 189.228 135.394 190.5C136.642 191.748 137.59 193.176 138.238 194.784C138.91 196.368 139.246 198.048 139.246 199.824C139.246 201.648 138.898 203.364 138.202 204.972C137.506 206.58 136.558 207.984 135.358 209.184C134.158 210.36 132.754 211.296 131.146 211.992C129.562 212.688 127.858 213.036 126.034 213.036H117.178ZM109.906 199.824C109.906 200.832 110.098 201.78 110.482 202.668C110.866 203.532 111.382 204.3 112.03 204.972C112.702 205.62 113.47 206.136 114.334 206.52C115.222 206.904 116.17 207.096 117.178 207.096H126.034C127.042 207.096 127.978 206.904 128.842 206.52C129.73 206.136 130.498 205.62 131.146 204.972C131.818 204.3 132.346 203.532 132.73 202.668C133.114 201.78 133.306 200.832 133.306 199.824C133.306 198.84 133.126 197.916 132.766 197.052C132.406 196.164 131.878 195.372 131.182 194.676C130.486 193.98 129.694 193.452 128.806 193.092C127.942 192.732 127.018 192.552 126.034 192.552H117.178C116.17 192.552 115.222 192.744 114.334 193.128C113.47 193.512 112.702 194.04 112.03 194.712C111.382 195.36 110.866 196.128 110.482 197.016C110.098 197.88 109.906 198.816 109.906 199.824ZM166.4 192.552H147.032V196.8H162.548V202.74H147.032V213.036H141.056V186.612H166.4V192.552ZM193.541 192.552H174.173V196.8H189.689V202.74H174.173V213.036H168.197V186.612H193.541V192.552ZM225.362 207.096V213.036H195.338V186.612H201.278V207.096H225.362ZM233.094 186.612V213.036H227.154V186.612H233.094ZM267 186.612V213.036H261.276H261.06H260.556L240.828 194.316V213.036H234.888V186.612H240.504H240.828H241.224L261.06 205.332V186.612H267ZM294.122 192.552H274.754V196.8H290.306V202.74H274.754V207.096H295.022V213.036H268.814V186.612H294.122V192.552Z" fill="url(#paint1_linear_1_83)"/>
<rect x="33" y="33" width="333" height="333" stroke="#303030" stroke-linejoin="round" stroke-dasharray="5 5"/>
<rect x="10" y="10" width="46" height="46" fill="url(#paint2_radial_1_83)"/>
<path d="M38.6569 25.9289C39.0474 25.5384 39.6806 25.5384 40.0711 25.9289C40.4616 26.3195 40.4616 26.9526 40.0711 27.3432L27.3432 40.0711C26.9526 40.4616 26.3195 40.4616 25.9289 40.0711C25.5384 39.6806 25.5384 39.0474 25.9289 38.6569L38.6569 25.9289Z" fill="#303030"/>
<path d="M25.9289 27.3432C25.5384 26.9526 25.5384 26.3195 25.9289 25.9289C26.3195 25.5384 26.9526 25.5384 27.3432 25.9289L40.0711 38.6569C40.4616 39.0474 40.4616 39.6806 40.0711 40.0711C39.6806 40.4616 39.0474 40.4616 38.6569 40.0711L25.9289 27.3432Z" fill="#303030"/>
<rect x="343" y="10" width="46" height="46" fill="url(#paint3_radial_1_83)"/>
<path d="M371.657 25.9289C372.047 25.5384 372.681 25.5384 373.071 25.9289C373.462 26.3195 373.462 26.9526 373.071 27.3432L360.343 40.0711C359.953 40.4616 359.319 40.4616 358.929 40.0711C358.538 39.6806 358.538 39.0474 358.929 38.6569L371.657 25.9289Z" fill="#303030"/>
<path d="M358.929 27.3432C358.538 26.9526 358.538 26.3195 358.929 25.9289C359.319 25.5384 359.953 25.5384 360.343 25.9289L373.071 38.6569C373.462 39.0474 373.462 39.6806 373.071 40.0711C372.681 40.4616 372.047 40.4616 371.657 40.0711L358.929 27.3432Z" fill="#303030"/>
<rect x="343" y="343" width="46" height="46" fill="url(#paint4_radial_1_83)"/>
<path d="M371.657 358.929C372.047 358.538 372.681 358.538 373.071 358.929C373.462 359.319 373.462 359.953 373.071 360.343L360.343 373.071C359.953 373.462 359.319 373.462 358.929 373.071C358.538 372.681 358.538 372.047 358.929 371.657L371.657 358.929Z" fill="#303030"/>
<path d="M358.929 360.343C358.538 359.953 358.538 359.319 358.929 358.929C359.319 358.538 359.953 358.538 360.343 358.929L373.071 371.657C373.462 372.047 373.462 372.681 373.071 373.071C372.681 373.462 372.047 373.462 371.657 373.071L358.929 360.343Z" fill="#303030"/>
<rect x="10" y="343" width="46" height="46" fill="url(#paint5_radial_1_83)"/>
<path d="M38.6569 358.929C39.0474 358.538 39.6806 358.538 40.0711 358.929C40.4616 359.319 40.4616 359.953 40.0711 360.343L27.3432 373.071C26.9526 373.462 26.3195 373.462 25.9289 373.071C25.5384 372.681 25.5384 372.047 25.9289 371.657L38.6569 358.929Z" fill="#303030"/>
<path d="M25.9289 360.343C25.5384 359.953 25.5384 359.319 25.9289 358.929C26.3195 358.538 26.9526 358.538 27.3432 358.929L40.0711 371.657C40.4616 372.047 40.4616 372.681 40.0711 373.071C39.6806 373.462 39.0474 373.462 38.6569 373.071L25.9289 360.343Z" fill="#303030"/>
<defs>
<radialGradient id="paint0_radial_1_83" cx="0" cy="0" r="1" gradientUnits="userSpaceOnUse" gradientTransform="translate(200 200) rotate(90) scale(200)">
<stop stop-color="#303030"/>
<stop offset="1" stop-color="#2A2A2A"/>
</radialGradient>
<linearGradient id="paint1_linear_1_83" x1="199.5" y1="134" x2="199.5" y2="265" gradientUnits="userSpaceOnUse">
<stop stop-color="#818181"/>
<stop offset="1" stop-color="#818181" stop-opacity="0"/>
</linearGradient>
<radialGradient id="paint2_radial_1_83" cx="0" cy="0" r="1" gradientUnits="userSpaceOnUse" gradientTransform="translate(33 33) rotate(90) scale(23)">
<stop offset="0.784563" stop-color="#2A2A2A"/>
<stop offset="1" stop-color="#2A2A2A" stop-opacity="0"/>
</radialGradient>
<radialGradient id="paint3_radial_1_83" cx="0" cy="0" r="1" gradientUnits="userSpaceOnUse" gradientTransform="translate(366 33) rotate(90) scale(23)">
<stop offset="0.784563" stop-color="#2A2A2A"/>
<stop offset="1" stop-color="#2A2A2A" stop-opacity="0"/>
</radialGradient>
<radialGradient id="paint4_radial_1_83" cx="0" cy="0" r="1" gradientUnits="userSpaceOnUse" gradientTransform="translate(366 366) rotate(90) scale(23)">
<stop offset="0.784563" stop-color="#2A2A2A"/>
<stop offset="1" stop-color="#2A2A2A" stop-opacity="0"/>
</radialGradient>
<radialGradient id="paint5_radial_1_83" cx="0" cy="0" r="1" gradientUnits="userSpaceOnUse" gradientTransform="translate(33 366) rotate(90) scale(23)">
<stop offset="0.784563" stop-color="#2A2A2A"/>
<stop offset="1" stop-color="#2A2A2A" stop-opacity="0"/>
</radialGradient>
</defs>
</svg>
