<svg width="400" height="400" viewBox="0 0 400 400" fill="none" xmlns="http://www.w3.org/2000/svg">
<rect width="400" height="400" fill="#1E1E1E" style="fill:#1E1E1E;fill:color(display-p3 0.1176 0.1176 0.1176);fill-opacity:1;"/>
<rect width="400" height="400" fill="url(#paint0_radial_0_1)" style=""/>
<path d="M131.821 169.612C132.925 169.612 133.969 169.828 134.953 170.26C135.937 170.668 136.789 171.244 137.509 171.988C138.253 172.708 138.829 173.56 139.237 174.544C139.669 175.528 139.885 176.572 139.885 177.676C139.885 178.804 139.669 179.86 139.237 180.844C138.829 181.804 138.253 182.656 137.509 183.4C136.789 184.12 135.937 184.696 134.953 185.128C133.969 185.536 132.925 185.74 131.821 185.74H116.305V196.036H110.365V169.612H131.821ZM131.821 179.8C132.397 179.8 132.889 179.596 133.297 179.188C133.729 178.756 133.945 178.252 133.945 177.676C133.945 177.1 133.729 176.608 133.297 176.2C132.889 175.768 132.397 175.552 131.821 175.552H116.305V179.8H131.821ZM171.713 190.096V196.036H141.689V169.612H147.629V190.096H171.713ZM198.813 175.552H179.445V179.8H194.997V185.74H179.445V190.096H199.713V196.036H173.505V169.612H198.813V175.552ZM207.501 196.036H201.525V175.768C201.525 174.904 201.681 174.1 201.993 173.356C202.329 172.612 202.773 171.964 203.325 171.412C203.877 170.86 204.525 170.428 205.269 170.116C206.037 169.78 206.841 169.612 207.681 169.612H224.097C224.937 169.612 225.729 169.78 226.473 170.116C227.217 170.428 227.865 170.86 228.417 171.412C228.993 171.964 229.437 172.612 229.749 173.356C230.085 174.1 230.253 174.904 230.253 175.768V196.036H224.277V188.728H207.501V196.036ZM208.473 175.552C208.209 175.552 207.981 175.648 207.789 175.84C207.597 176.032 207.501 176.26 207.501 176.524V182.788H224.277V176.524C224.277 176.26 224.181 176.032 223.989 175.84C223.797 175.648 223.569 175.552 223.305 175.552H208.473ZM237.981 175.552V177.676C237.981 178.252 238.197 178.756 238.629 179.188C239.061 179.62 239.577 179.86 240.177 179.908H252.561H252.669V179.944C253.773 179.968 254.805 180.196 255.765 180.628C256.725 181.036 257.565 181.612 258.285 182.356C259.005 183.076 259.569 183.916 259.977 184.876C260.409 185.836 260.625 186.868 260.625 187.972V196.036H232.149V190.096H254.685V187.972C254.685 187.396 254.469 186.904 254.037 186.496C253.629 186.064 253.137 185.848 252.561 185.848H239.997C238.869 185.8 237.825 185.56 236.865 185.128C235.905 184.672 235.065 184.084 234.345 183.364C233.625 182.62 233.061 181.768 232.653 180.808C232.245 179.824 232.041 178.78 232.041 177.676V169.612H259.545V175.552H237.981ZM287.724 175.552H268.356V179.8H283.908V185.74H268.356V190.096H288.624V196.036H262.416V169.612H287.724V175.552ZM89.5509 208.552V210.676C89.5509 211.252 89.7669 211.756 90.1989 212.188C90.6309 212.62 91.1469 212.86 91.7469 212.908H104.131H104.239V212.944C105.343 212.968 106.375 213.196 107.335 213.628C108.295 214.036 109.135 214.612 109.855 215.356C110.575 216.076 111.139 216.916 111.547 217.876C111.979 218.836 112.195 219.868 112.195 220.972V229.036H83.7189V223.096H106.255V220.972C106.255 220.396 106.039 219.904 105.607 219.496C105.199 219.064 104.707 218.848 104.131 218.848H91.5669C90.4389 218.8 89.3949 218.56 88.4349 218.128C87.4749 217.672 86.6349 217.084 85.9149 216.364C85.1949 215.62 84.6309 214.768 84.2229 213.808C83.8149 212.824 83.6109 211.78 83.6109 210.676V202.612H111.115V208.552H89.5509ZM143.326 202.648V208.588H131.662V229.036H125.686V208.588H113.986V202.648H125.686H128.674H143.326ZM151.11 229.036H145.134V208.768C145.134 207.904 145.29 207.1 145.602 206.356C145.938 205.612 146.382 204.964 146.934 204.412C147.486 203.86 148.134 203.428 148.878 203.116C149.646 202.78 150.45 202.612 151.29 202.612H167.706C168.546 202.612 169.338 202.78 170.082 203.116C170.826 203.428 171.474 203.86 172.026 204.412C172.602 204.964 173.046 205.612 173.358 206.356C173.694 207.1 173.862 207.904 173.862 208.768V229.036H167.886V221.728H151.11V229.036ZM152.082 208.552C151.818 208.552 151.59 208.648 151.398 208.84C151.206 209.032 151.11 209.26 151.11 209.524V215.788H167.886V209.524C167.886 209.26 167.79 209.032 167.598 208.84C167.406 208.648 167.178 208.552 166.914 208.552H152.082ZM207.762 202.612V229.036H202.038H201.822H201.318L181.59 210.316V229.036H175.65V202.612H181.266H181.59H181.986L201.822 221.332V202.612H207.762ZM237.152 206.5C238.424 207.748 239.384 209.176 240.032 210.784C240.704 212.368 241.04 214.048 241.04 215.824C241.04 217.648 240.692 219.364 239.996 220.972C239.3 222.58 238.352 223.984 237.152 225.184C235.952 226.36 234.548 227.296 232.94 227.992C231.356 228.688 229.652 229.036 227.828 229.036H209.576V202.612H227.828C229.604 202.612 231.284 202.948 232.868 203.62C234.476 204.268 235.904 205.228 237.152 206.5ZM227.828 223.096C228.836 223.096 229.772 222.904 230.636 222.52C231.524 222.136 232.292 221.62 232.94 220.972C233.588 220.3 234.104 219.532 234.488 218.668C234.872 217.78 235.064 216.832 235.064 215.824C235.064 214.84 234.884 213.916 234.524 213.052C234.164 212.164 233.636 211.372 232.94 210.676C231.524 209.26 229.82 208.552 227.828 208.552H215.516V223.096H227.828ZM282.093 210.676C282.093 211.516 281.973 212.32 281.733 213.088C281.493 213.832 281.157 214.528 280.725 215.176C281.469 215.944 282.033 216.82 282.417 217.804C282.825 218.764 283.029 219.784 283.029 220.864V220.972C283.029 222.1 282.813 223.156 282.381 224.14C281.973 225.1 281.397 225.952 280.653 226.696C279.933 227.416 279.081 227.992 278.097 228.424C277.113 228.832 276.069 229.036 274.965 229.036H252.537V202.612H274.029C275.133 202.612 276.177 202.828 277.161 203.26C278.145 203.668 278.997 204.244 279.717 204.988C280.461 205.708 281.037 206.56 281.445 207.544C281.877 208.528 282.093 209.572 282.093 210.676ZM258.513 212.8H274.029C274.605 212.8 275.097 212.596 275.505 212.188C275.937 211.78 276.153 211.276 276.153 210.676C276.153 210.1 275.937 209.608 275.505 209.2C275.097 208.768 274.605 208.552 274.029 208.552H258.513V212.8ZM277.089 220.864C277.089 220.264 276.885 219.76 276.477 219.352C276.069 218.944 275.565 218.74 274.965 218.74H258.513V223.096H274.965C275.565 223.096 276.069 222.892 276.477 222.484C276.885 222.076 277.089 221.572 277.089 220.972V220.864ZM298.015 213.484L307.519 202.612H315.403L301.003 219.136V229.036H295.027V219.136L280.627 202.612H288.511L298.015 213.484Z" fill="url(#paint1_linear_0_1)" style=""/>
<rect x="33" y="33" width="333" height="333" stroke="#303030" style="stroke:#303030;stroke:color(display-p3 0.1882 0.1882 0.1882);stroke-opacity:1;" stroke-linejoin="round" stroke-dasharray="5 5"/>
<rect x="10" y="10" width="46" height="46" fill="url(#paint2_radial_0_1)" style=""/>
<path d="M38.6569 25.9289C39.0474 25.5384 39.6806 25.5384 40.0711 25.9289C40.4616 26.3195 40.4616 26.9526 40.0711 27.3432L27.3432 40.0711C26.9526 40.4616 26.3195 40.4616 25.9289 40.0711C25.5384 39.6806 25.5384 39.0474 25.9289 38.6569L38.6569 25.9289Z" fill="#303030" style="fill:#303030;fill:color(display-p3 0.1882 0.1882 0.1882);fill-opacity:1;"/>
<path d="M25.9289 27.3432C25.5384 26.9526 25.5384 26.3195 25.9289 25.9289C26.3195 25.5384 26.9526 25.5384 27.3432 25.9289L40.0711 38.6569C40.4616 39.0474 40.4616 39.6806 40.0711 40.0711C39.6806 40.4616 39.0474 40.4616 38.6569 40.0711L25.9289 27.3432Z" fill="#303030" style="fill:#303030;fill:color(display-p3 0.1882 0.1882 0.1882);fill-opacity:1;"/>
<rect x="343" y="10" width="46" height="46" fill="url(#paint3_radial_0_1)" style=""/>
<path d="M371.657 25.9289C372.047 25.5384 372.681 25.5384 373.071 25.9289C373.462 26.3195 373.462 26.9526 373.071 27.3432L360.343 40.0711C359.953 40.4616 359.319 40.4616 358.929 40.0711C358.538 39.6806 358.538 39.0474 358.929 38.6569L371.657 25.9289Z" fill="#303030" style="fill:#303030;fill:color(display-p3 0.1882 0.1882 0.1882);fill-opacity:1;"/>
<path d="M358.929 27.3432C358.538 26.9526 358.538 26.3195 358.929 25.9289C359.319 25.5384 359.953 25.5384 360.343 25.9289L373.071 38.6569C373.462 39.0474 373.462 39.6806 373.071 40.0711C372.681 40.4616 372.047 40.4616 371.657 40.0711L358.929 27.3432Z" fill="#303030" style="fill:#303030;fill:color(display-p3 0.1882 0.1882 0.1882);fill-opacity:1;"/>
<rect x="343" y="343" width="46" height="46" fill="url(#paint4_radial_0_1)" style=""/>
<path d="M371.657 358.929C372.047 358.538 372.681 358.538 373.071 358.929C373.462 359.319 373.462 359.953 373.071 360.343L360.343 373.071C359.953 373.462 359.319 373.462 358.929 373.071C358.538 372.681 358.538 372.047 358.929 371.657L371.657 358.929Z" fill="#303030" style="fill:#303030;fill:color(display-p3 0.1882 0.1882 0.1882);fill-opacity:1;"/>
<path d="M358.929 360.343C358.538 359.953 358.538 359.319 358.929 358.929C359.319 358.538 359.953 358.538 360.343 358.929L373.071 371.657C373.462 372.047 373.462 372.681 373.071 373.071C372.681 373.462 372.047 373.462 371.657 373.071L358.929 360.343Z" fill="#303030" style="fill:#303030;fill:color(display-p3 0.1882 0.1882 0.1882);fill-opacity:1;"/>
<rect x="10" y="343" width="46" height="46" fill="url(#paint5_radial_0_1)" style=""/>
<path d="M38.6569 358.929C39.0474 358.538 39.6806 358.538 40.0711 358.929C40.4616 359.319 40.4616 359.953 40.0711 360.343L27.3432 373.071C26.9526 373.462 26.3195 373.462 25.9289 373.071C25.5384 372.681 25.5384 372.047 25.9289 371.657L38.6569 358.929Z" fill="#303030" style="fill:#303030;fill:color(display-p3 0.1882 0.1882 0.1882);fill-opacity:1;"/>
<path d="M25.9289 360.343C25.5384 359.953 25.5384 359.319 25.9289 358.929C26.3195 358.538 26.9526 358.538 27.3432 358.929L40.0711 371.657C40.4616 372.047 40.4616 372.681 40.0711 373.071C39.6806 373.462 39.0474 373.462 38.6569 373.071L25.9289 360.343Z" fill="#303030" style="fill:#303030;fill:color(display-p3 0.1882 0.1882 0.1882);fill-opacity:1;"/>
<defs>
<radialGradient id="paint0_radial_0_1" cx="0" cy="0" r="1" gradientUnits="userSpaceOnUse" gradientTransform="translate(200 200) rotate(90) scale(200)">
<stop stop-color="#303030" style="stop-color:#303030;stop-color:color(display-p3 0.1888 0.1888 0.1888);stop-opacity:1;"/>
<stop offset="1" stop-color="#2A2A2A" style="stop-color:#2A2A2A;stop-color:color(display-p3 0.1635 0.1635 0.1635);stop-opacity:1;"/>
</radialGradient>
<linearGradient id="paint1_linear_0_1" x1="199.5" y1="134" x2="199.5" y2="265" gradientUnits="userSpaceOnUse">
<stop stop-color="#818181" style="stop-color:#818181;stop-color:color(display-p3 0.5048 0.5048 0.5048);stop-opacity:1;"/>
<stop offset="1" stop-color="#818181" stop-opacity="0" style="stop-color:none;stop-opacity:0;"/>
</linearGradient>
<radialGradient id="paint2_radial_0_1" cx="0" cy="0" r="1" gradientUnits="userSpaceOnUse" gradientTransform="translate(33 33) rotate(90) scale(23)">
<stop offset="0.784563" stop-color="#2A2A2A" style="stop-color:#2A2A2A;stop-color:color(display-p3 0.1635 0.1635 0.1635);stop-opacity:1;"/>
<stop offset="1" stop-color="#2A2A2A" stop-opacity="0" style="stop-color:none;stop-opacity:0;"/>
</radialGradient>
<radialGradient id="paint3_radial_0_1" cx="0" cy="0" r="1" gradientUnits="userSpaceOnUse" gradientTransform="translate(366 33) rotate(90) scale(23)">
<stop offset="0.784563" stop-color="#2A2A2A" style="stop-color:#2A2A2A;stop-color:color(display-p3 0.1635 0.1635 0.1635);stop-opacity:1;"/>
<stop offset="1" stop-color="#2A2A2A" stop-opacity="0" style="stop-color:none;stop-opacity:0;"/>
</radialGradient>
<radialGradient id="paint4_radial_0_1" cx="0" cy="0" r="1" gradientUnits="userSpaceOnUse" gradientTransform="translate(366 366) rotate(90) scale(23)">
<stop offset="0.784563" stop-color="#2A2A2A" style="stop-color:#2A2A2A;stop-color:color(display-p3 0.1635 0.1635 0.1635);stop-opacity:1;"/>
<stop offset="1" stop-color="#2A2A2A" stop-opacity="0" style="stop-color:none;stop-opacity:0;"/>
</radialGradient>
<radialGradient id="paint5_radial_0_1" cx="0" cy="0" r="1" gradientUnits="userSpaceOnUse" gradientTransform="translate(33 366) rotate(90) scale(23)">
<stop offset="0.784563" stop-color="#2A2A2A" style="stop-color:#2A2A2A;stop-color:color(display-p3 0.1635 0.1635 0.1635);stop-opacity:1;"/>
<stop offset="1" stop-color="#2A2A2A" stop-opacity="0" style="stop-color:none;stop-opacity:0;"/>
</radialGradient>
</defs>
</svg>
